<svg xmlns="http://www.w3.org/2000/svg" width="673" height="543.307" viewBox="0 0 673 543.307">
  <g id="Grades" transform="translate(-68.62 -69.152)">
    <rect id="Rectangle_123" data-name="Rectangle 123" width="17.192" height="10.55" transform="translate(345.342 577.319)" fill="#f9b499"/>
    <rect id="Rectangle_124" data-name="Rectangle 124" width="17.192" height="10.55" transform="translate(388.584 577.319)" fill="#f9b499"/>
    <path id="Path_1" data-name="Path 1" d="M363.453,609.945l-8.61-107.64L351,402h91.954l-3.27,76.619-10.79,131.326H406.511s-1.848-83.631-.711-105.793a55.8,55.8,0,0,0-.222-8.517l-8.628-85.044-7.307,65.682a339.749,339.749,0,0,0-2.079,37.506v96.167Z" transform="translate(-21.52 -29.292)" fill="#1b262c"/>
    <rect id="Rectangle_125" data-name="Rectangle 125" width="91.695" height="6.115" transform="translate(329.452 372.699)" opacity="0.2"/>
    <path id="Path_2" data-name="Path 2" d="M358.677,190.749s-7.243-9.238-4.314-17.432a12.8,12.8,0,0,0,4.157-2.4c.24-.2.536-.277.674,0,.5,1.09,6.568,1.192,8.407,2.023,0,0-4.37,16.1-4.619,18.337A16.972,16.972,0,0,0,358.677,190.749Z" transform="translate(-21.723 -11.667)" fill="#2f2e41"/>
    <path id="Path_3" data-name="Path 3" d="M314.59,313.331l24.748,20.323,14.069-15.113-5.182,72.176h91.954l-7.557-72.425L445.648,329.5l2.088-53.663s-20.065-19.067-38.808-21.894H378.544s-20.97,3.908-30.088,16.407Z" transform="translate(-18.745 -18.008)" fill="#5a00cc"/>
    <path id="Path_4" data-name="Path 4" d="M318.353,321.93s-12.231,14.559-8.065,21.589c0,0,3.39,11.464,46.892,42.725l9.118-9.118-34.91-37.247,3.5-4.379Z" transform="translate(-18.351 -23.19)" fill="#f9b499"/>
    <path id="Path_5" data-name="Path 5" d="M361.12,390.8l9.118-9.118,17.922,7.529a5.986,5.986,0,0,1,2.245,9.312l-4.859,5.875a6,6,0,0,1-8.462.758Z" transform="translate(-22.291 -27.743)" fill="#f9b499"/>
    <path id="Path_6" data-name="Path 6" d="M347.3,656.542s-1.044-18.753,17.718-20.323v-4.425s9.894-1.3,13.025,2.864c0,0,5.6-3.122,7.159,0l4.037,21.885Z" transform="translate(-21.237 -46.79)" fill="#5a00cc"/>
    <path id="Path_7" data-name="Path 7" d="M451.13,656.542s1.044-18.753-17.709-20.323v-4.425s-9.9-1.3-13.025,2.864c0,0-5.607-3.122-7.169,0l-4.037,21.885Z" transform="translate(-25.955 -46.79)" fill="#5a00cc"/>
    <path id="Path_8" data-name="Path 8" d="M382.5,641.842s-5.737-5.34-16.019-5.607V631.81S378.591,633.113,382.5,641.842Z" transform="translate(-22.7 -46.806)" opacity="0.2"/>
    <path id="Path_9" data-name="Path 9" d="M417.79,641.842s5.728-5.34,16.019-5.607V631.81S421.679,633.113,417.79,641.842Z" transform="translate(-26.61 -46.806)" opacity="0.2"/>
    <path id="Path_10" data-name="Path 10" d="M544.858,385.983l-94.6-2.9L447.25,257.29q22.273.97,46.19,1.035,25.718,0,49.534-1.035Q543.925,321.687,544.858,385.983Z" transform="translate(-28.855 -18.264)" fill="#ccc"/>
    <g id="Group_4" data-name="Group 4" transform="translate(430.792 261.992)" opacity="0.2">
      <path id="Path_11" data-name="Path 11" d="M496.929,285.54c-18.263,0-35.963-1.219-36.259-1.238l.065-.924c.5,0,50.291,3.464,68.869-1.229l.222.924C522.213,284.968,509.437,285.54,496.929,285.54Z" transform="translate(-460.67 -282.15)"/>
    </g>
    <g id="Group_5" data-name="Group 5" transform="translate(432.658 274.417)" opacity="0.2">
      <path id="Path_12" data-name="Path 12" d="M498.949,298.99c-18.254,0-35.963-1.219-36.259-1.238l.065-.924c.5,0,50.291,3.464,68.869-1.229l.222.878C524.233,298.418,511.457,298.99,498.949,298.99Z" transform="translate(-462.69 -295.6)"/>
    </g>
    <g id="Group_6" data-name="Group 6" transform="translate(432.64 289.161)" opacity="0.2">
      <path id="Path_13" data-name="Path 13" d="M462.772,315.551l-.1-.924c.379,0,37.875-4.333,67.224-2.7l-.055.924C500.573,311.218,463.15,315.514,462.772,315.551Z" transform="translate(-462.67 -311.561)"/>
    </g>
    <g id="Group_7" data-name="Group 7" transform="translate(431.686 303.873)" opacity="0.2">
      <rect id="Rectangle_126" data-name="Rectangle 126" width="0.915" height="67.363" transform="translate(0 0.914) rotate(-89.12)"/>
    </g>
    <g id="Group_8" data-name="Group 8" transform="translate(433.924 314.214)" opacity="0.2">
      <path id="Path_14" data-name="Path 14" d="M464.088,341.664l-.028-.915,63.621-2.069.028.915Z" transform="translate(-464.06 -338.68)"/>
    </g>
    <g id="Group_9" data-name="Group 9" transform="translate(435.79 326.851)" opacity="0.2">
      <path id="Path_15" data-name="Path 15" d="M466.1,354.106l-.018-.915,60.314-.831.009.915Z" transform="translate(-466.08 -352.36)"/>
    </g>
    <g id="Group_10" data-name="Group 10" transform="translate(436.808 338.265)" opacity="0.2">
      <rect id="Rectangle_127" data-name="Rectangle 127" width="60.739" height="0.915" transform="translate(0 1.421) rotate(-1.34)"/>
    </g>
    <g id="Group_11" data-name="Group 11" transform="translate(436.834 349.65)" opacity="0.2">
      <path id="Path_16" data-name="Path 16" d="M467.219,378.574l-.009-.915,60.721-.619.009.915Z" transform="translate(-467.21 -377.04)"/>
    </g>
    <path id="Path_17" data-name="Path 17" d="M486.95,258.35l-.582,5.931a4.083,4.083,0,0,0,4.249,4.48l13.663-.61a4.092,4.092,0,0,0,3.843-4.776l-.868-5.025Z" transform="translate(-31.835 -18.344)" fill="#f9b499"/>
    <path id="Path_18" data-name="Path 18" d="M491.8,251.49l-4.8,6.116,29.007-.083-5.33-5.376A7.649,7.649,0,0,0,506.566,250l-7.39-1.293a7.621,7.621,0,0,0-7.372,2.781Z" transform="translate(-31.884 -17.6)" fill="#f9b499"/>
    <path id="Path_19" data-name="Path 19" d="M382.66,234.13h30.383v22.688a7.7,7.7,0,0,1-7.7,7.7H390.364a7.7,7.7,0,0,1-7.7-7.7V234.13Z" transform="translate(-23.933 -16.499)" fill="#f9b499"/>
    <path id="Path_20" data-name="Path 20" d="M517.721,303.632a13.229,13.229,0,0,1-9.293-3.233,11.473,11.473,0,0,1-3.5-9.238c1.3-21.5,19.862-22.892,20.046-22.9l.055.924c-.73,0-17.94,1.376-19.187,22.051a10.7,10.7,0,0,0,3.2,8.527c2.273,2.088,5.358,3.1,9.238,2.984a20.1,20.1,0,0,0,14.208-6.633c3.261-3.594,4.758-7.252,4.453-10.882-.351-4.037-2.993-8-7.843-11.788l.564-.721c5.062,3.945,7.815,8.129,8.185,12.434.333,3.889-1.238,7.778-4.684,11.566a21.016,21.016,0,0,1-14.864,6.938Z" transform="translate(-33.248 -19.1)" fill="#2f2e41"/>
    <path id="Path_21" data-name="Path 21" d="M518.775,295.652l-.905-.12,3.1-22.4,10.4,21.007-.822.406-9.081-18.356Z" transform="translate(-34.237 -19.471)" fill="#2f2e41"/>
    <path id="Path_22" data-name="Path 22" d="M510.823,291.073l-.2-.924c.582-.129,14.2-3.252,19.169-3.289v.924C524.93,287.848,510.971,291.045,510.823,291.073Z" transform="translate(-33.685 -20.517)" fill="#2f2e41"/>
    <path id="Path_23" data-name="Path 23" d="M657.256,313.258s-11.741-.85-10.661,25.478,3.769,40.37,3.769,40.37-.36,5.82-4.878,4.684-13.035-6.818-17.229-2.577-2.771,11.159,2.965,19.122S649.016,426.2,650.1,427.817s1.478,4.619-1.718,4.286-24.831-7.621-27.714,2.854,16.887,30,19.012,32.185,2.217,3.538,1.358,4.859-7.88-1.848-14.125-3.7-13.8-2.873-14.938,3.307,7.538,24.277,40.111,43.28l15.7,7.834,14.827-9.46c30.485-22.236,37.34-41.044,35.575-47.113s-9.238-4.249-15.122-1.848-12.721,6.282-13.709,5.072-1.007-2.614.924-4.988,19.584-23.714,15.7-33.912-24.7-.684-27.852-.074-3.039-2.4-2.152-4.092,11.086-20.758,16.037-29.229,5.829-15.39,1.053-19.279-12.508,2.7-16.887,4.3-5.321-4.194-5.321-4.194,1.275-14.217-.277-40.536-13.413-24.231-13.413-24.231" transform="translate(-41.401 -22.517)" fill="#ebebeb"/>
    <path id="Path_24" data-name="Path 24" d="M661.939,338.8v.545c0,.37.074.924.139,1.617.083,1.487.231,3.547.416,6.217.351,5.4.831,13.219,1.358,22.882,1.072,19.27,2.328,46.032,3.621,75.529s2.476,56.222,3.436,75.6c.49,9.644.924,17.46,1.155,22.882.139,2.688.24,4.776.314,6.226a10.015,10.015,0,0,0,.074,1.635,5.394,5.394,0,0,1,0,.545v-.545c0-.36-.074-.924-.129-1.617-.092-1.478-.24-3.547-.416-6.226-.37-5.395-.831-13.21-1.367-22.873-1.072-19.27-2.328-46.042-3.621-75.6s-2.466-56.213-3.436-75.6c-.49-9.635-.924-17.441-1.173-22.882-.111-2.688-.231-4.776-.3-6.226a9.83,9.83,0,0,0-.074-1.617,4.311,4.311,0,0,1,0-.49Z" transform="translate(-45.216 -24.475)" fill="#e0e0e0"/>
    <path id="Path_25" data-name="Path 25" d="M642.09,396a4.794,4.794,0,0,1,.979.794c.61.554,1.487,1.386,2.494,2.393,2.06,2.06,4.85,4.961,7.852,8.222l7.667,8.379,2.328,2.531a5.805,5.805,0,0,1,.813.97,5.47,5.47,0,0,1-.979-.8c-.61-.545-1.478-1.367-2.476-2.4-2.042-2.079-4.785-5.007-7.8-8.268l-7.723-8.314-2.319-2.577A5.446,5.446,0,0,1,642.09,396Z" transform="translate(-43.704 -28.835)" fill="#e0e0e0"/>
    <path id="Path_26" data-name="Path 26" d="M667.74,418.442c-.12-.12,5.6-6.116,12.785-13.349S693.634,392,693.754,392.16s-5.607,6.106-12.794,13.34S667.851,418.552,667.74,418.442Z" transform="translate(-45.658 -28.542)" fill="#e0e0e0"/>
    <path id="Path_27" data-name="Path 27" d="M667.66,468.346a5.632,5.632,0,0,1,1.09-.7l3.067-1.718c2.587-1.478,6.152-3.464,10.014-5.838s7.279-4.619,9.737-6.273l2.965-1.94a5.875,5.875,0,0,1,1.109-.665,9.957,9.957,0,0,1-.979.859c-.647.517-1.6,1.229-2.771,2.106-2.4,1.746-5.792,4.055-9.663,6.467a115.022,115.022,0,0,1-10.162,5.691c-1.321.684-2.4,1.219-3.159,1.561a4.62,4.62,0,0,1-1.247.453Z" transform="translate(-45.652 -33.042)" fill="#e0e0e0"/>
    <path id="Path_28" data-name="Path 28" d="M639.56,452.55a4.814,4.814,0,0,1,1.1.527c.665.351,1.644.924,2.827,1.57,2.383,1.349,5.663,3.261,9.238,5.395s6.836,4.1,9.164,5.543c1.164.721,2.106,1.312,2.771,1.746a4.973,4.973,0,0,1,.924.693,3.835,3.835,0,0,1-1.081-.5c-.684-.36-1.644-.924-2.845-1.57-2.374-1.367-5.654-3.261-9.238-5.413s-6.827-4.111-9.155-5.543c-1.173-.73-2.106-1.321-2.771-1.755A3.909,3.909,0,0,1,639.56,452.55Z" transform="translate(-43.511 -33.144)" fill="#e0e0e0"/>
    <path id="Path_29" data-name="Path 29" d="M634,495.94a5.774,5.774,0,0,1,1.376.674l3.649,2c3.067,1.718,7.279,4.139,11.861,6.836s8.813,5.173,11.852,6.984l3.566,2.18a7.8,7.8,0,0,1,1.256.868,7.561,7.561,0,0,1-1.376-.665l-3.7-2.014c-3.067-1.718-7.3-4.139-11.862-6.836s-8.822-5.173-11.862-6.984l-3.557-2.171A7.8,7.8,0,0,1,634,495.94Z" transform="translate(-43.087 -36.451)" fill="#e0e0e0"/>
    <path id="Path_30" data-name="Path 30" d="M669.61,514.463a10.37,10.37,0,0,1,1.367-.924l3.806-2.319c3.224-1.958,7.649-4.684,12.453-7.806s9.109-6.078,12.185-8.231l3.7-2.55a8.652,8.652,0,0,1,1.395-.924,10.783,10.783,0,0,1-1.266,1.072c-.813.647-2.032,1.57-3.538,2.7-2.965,2.236-7.279,5.247-12.111,8.388s-9.3,5.811-12.564,7.677c-1.644.924-2.956,1.663-3.908,2.152A9.553,9.553,0,0,1,669.61,514.463Z" transform="translate(-45.801 -36.129)" fill="#e0e0e0"/>
    <path id="Path_31" data-name="Path 31" d="M691.534,545.61H648.19L662.333,652.7h15.049Z" transform="translate(-44.169 -40.236)" fill="#e0e0e0"/>
    <path id="Path_32" data-name="Path 32" d="M650.61,559.512s0,.157.24.388a2.633,2.633,0,0,0,1.053.739,5.182,5.182,0,0,0,4.564-.564c1.764-.924,3.279-2.854,5.635-3.7a12.249,12.249,0,0,1,7.963.148,34.183,34.183,0,0,1,7.39,3.6,54.768,54.768,0,0,0,6.032,3.233,16.2,16.2,0,0,0,4.453,1.284,7.13,7.13,0,0,0,1.256.092h.443a22.17,22.17,0,0,1-5.931-1.783,58.422,58.422,0,0,1-5.949-3.326,32.794,32.794,0,0,0-7.557-3.7,12.674,12.674,0,0,0-8.406-.092,11.009,11.009,0,0,0-3.169,1.958,23.563,23.563,0,0,1-2.476,1.912,5.164,5.164,0,0,1-4.231.739,4.618,4.618,0,0,1-1.312-.942Z" transform="translate(-44.353 -40.965)" fill="#f5f5f5"/>
    <path id="Path_33" data-name="Path 33" d="M652.33,580.57s.342-.443,1.025-1.155a9.837,9.837,0,0,1,3.464-2.2,15.372,15.372,0,0,1,6.023-.924,61.235,61.235,0,0,1,7.547,1.025,26.4,26.4,0,0,0,7.723.323,21.5,21.5,0,0,0,6.079-1.737,18.591,18.591,0,0,0,3.64-2.171,4.8,4.8,0,0,0,1.155-1.044,38.24,38.24,0,0,1-5.007,2.771,22.693,22.693,0,0,1-5.931,1.478,26.788,26.788,0,0,1-7.529-.37,57.478,57.478,0,0,0-7.63-.979,15.2,15.2,0,0,0-6.245,1.081,9.127,9.127,0,0,0-3.483,2.476,6.2,6.2,0,0,0-.656.924A1.238,1.238,0,0,0,652.33,580.57Z" transform="translate(-44.484 -42.3)" fill="#f5f5f5"/>
    <path id="Path_34" data-name="Path 34" d="M687.146,592.395a3.7,3.7,0,0,0-1.2-.619A12.561,12.561,0,0,0,682.36,591a22.835,22.835,0,0,0-5.441.314c-2.014.323-4.185.924-6.467,1.367a26.551,26.551,0,0,1-6.467.721,14.163,14.163,0,0,1-5.127-1.09,12.23,12.23,0,0,1-3.889-2.891,3.481,3.481,0,0,0,.73,1.127,9.434,9.434,0,0,0,2.993,2.18,13.708,13.708,0,0,0,5.312,1.3,25.4,25.4,0,0,0,6.624-.684c2.3-.49,4.443-1.062,6.467-1.478a24.252,24.252,0,0,1,5.293-.443A19.335,19.335,0,0,1,687.146,592.395Z" transform="translate(-44.685 -43.575)" fill="#f5f5f5"/>
    <path id="Path_35" data-name="Path 35" d="M658.34,612.382a6.882,6.882,0,0,1,4.194-.434,21.043,21.043,0,0,1,4.443,1.644,16.933,16.933,0,0,0,16.056-.822,15.577,15.577,0,0,0,2.6-1.986,4.532,4.532,0,0,0,.758-.924,36.372,36.372,0,0,1-3.584,2.476,17.94,17.94,0,0,1-10.069,2.134c-4.111-.24-7.252-2.679-10.1-2.965a6.467,6.467,0,0,0-3.316.222C658.617,612.022,658.312,612.354,658.34,612.382Z" transform="translate(-44.942 -45.133)" fill="#f5f5f5"/>
    <path id="Path_36" data-name="Path 36" d="M661,634.338a8.314,8.314,0,0,0,3.621-.711c2.18-.73,4.878-2.4,8.037-3.649a12.6,12.6,0,0,1,4.619-.924,8.314,8.314,0,0,1,3.7.841,8.692,8.692,0,0,1,2.688,2.3,2.189,2.189,0,0,0-.416-.924,5.875,5.875,0,0,0-2.032-1.848,8.517,8.517,0,0,0-3.926-1.053,12.933,12.933,0,0,0-4.868.924c-3.27,1.3-5.931,2.965-7.954,3.843S661,634.236,661,634.338Z" transform="translate(-45.145 -46.543)" fill="#f5f5f5"/>
    <path id="Path_37" data-name="Path 37" d="M663.25,645.178a9.773,9.773,0,0,0,2.771.924,52.166,52.166,0,0,0,6.864,1.155,51.3,51.3,0,0,0,6.947.194,10.3,10.3,0,0,0,2.864-.342c0-.213-4.443,0-9.755-.564S663.3,645.012,663.25,645.178Z" transform="translate(-45.316 -47.823)" fill="#f5f5f5"/>
    <rect id="Rectangle_128" data-name="Rectangle 128" width="89.044" height="130.726" transform="translate(102.083 94.624) rotate(-13.37)" fill="#e0e0e0"/>
    <rect id="Rectangle_129" data-name="Rectangle 129" width="89.044" height="130.726" transform="translate(95.338 90.872) rotate(-13.37)" fill="#ebebeb"/>
    <rect id="Rectangle_130" data-name="Rectangle 130" width="89.044" height="128.222" transform="translate(88.38 89.743) rotate(-13.37)" fill="#f5f5f5"/>
    <path id="Path_39" data-name="Path 39" d="M180.854,63.449c0,.139-15.344,3.917-34.337,8.425s-34.439,8.083-34.467,7.917,15.344-3.908,34.347-8.425S180.817,63.255,180.854,63.449Z" transform="translate(-4.31 48.022)" fill="#e0e0e0"/>
    <path id="Path_40" data-name="Path 40" d="M183.184,73.189c0,.148-15.344,3.926-34.337,8.434s-34.439,8.083-34.467,7.917,15.335-3.917,34.347-8.425S183.147,73.014,183.184,73.189Z" transform="translate(-4.487 47.279)" fill="#e0e0e0"/>
    <path id="Path_41" data-name="Path 41" d="M185.554,83c0,.139-15.335,3.917-34.337,8.434s-34.43,8.083-34.467,7.917,15.335-3.917,34.347-8.434S185.48,82.852,185.554,83Z" transform="translate(-4.668 46.532)" fill="#e0e0e0"/>
    <path id="Path_42" data-name="Path 42" d="M187.846,92.79c0,.139-15.344,3.917-34.347,8.434s-34.43,8.055-34.43,7.9,15.335-3.926,34.347-8.434S187.809,92.642,187.846,92.79Z" transform="translate(-4.845 45.786)" fill="#e0e0e0"/>
    <path id="Path_43" data-name="Path 43" d="M190.175,102.58c0,.148-15.344,3.926-34.347,8.434s-34.42,8.083-34.448,7.917,15.335-3.917,34.337-8.425S190.129,102.441,190.175,102.58Z" transform="translate(-5.021 45.04)" fill="#e0e0e0"/>
    <path id="Path_44" data-name="Path 44" d="M192.5,112.38c0,.139-15.344,3.917-34.347,8.434s-34.42,8.083-34.448,7.917,15.326-3.917,34.337-8.434S192.459,112.241,192.5,112.38Z" transform="translate(-5.198 44.293)" fill="#e0e0e0"/>
    <path id="Path_45" data-name="Path 45" d="M194.835,122.189c0,.139-15.344,3.908-34.347,8.425s-34.42,8.074-34.448,7.917,15.326-3.917,34.337-8.434S194.789,122.014,194.835,122.189Z" transform="translate(-5.376 43.545)" fill="#e0e0e0"/>
    <g id="freepik--Floor--inject-4" transform="translate(68.62 611.693)">
      <path id="Path_46" data-name="Path 46" d="M741.62,661.079c0,.212-150.67.388-336.5.388s-336.5-.176-336.5-.388,150.652-.379,336.5-.379S741.62,660.857,741.62,661.079Z" transform="translate(-68.62 -660.7)" fill="#3f3d56"/>
    </g>
    <path id="Path_47" data-name="Path 47" d="M275.885,548.6c1.487-4.979,4.527-9.783,9.284-11.862s10.67-.924,15.7.924,10.032,4.314,15.418,4.619,11.446-2.226,13.053-7.39c1.487-4.85-1.4-10-5.053-13.506a31.871,31.871,0,0,0-52.222,12.527" transform="translate(-15.505 -37.711)" fill="#2f2e41"/>
    <g id="Group_12" data-name="Group 12" transform="translate(256.565 474.76)" opacity="0.3">
      <path id="Path_48" data-name="Path 48" d="M275.885,548.6c1.487-4.979,4.527-9.783,9.284-11.862s10.67-.924,15.7.924,10.032,4.314,15.418,4.619,11.446-2.226,13.053-7.39c1.487-4.85-1.4-10-5.053-13.506a31.871,31.871,0,0,0-52.222,12.527" transform="translate(-272.07 -512.471)"/>
    </g>
    <path id="Path_49" data-name="Path 49" d="M229.56,569.9c-7.9-7.483-7.5-20.545-3.566-30.679s12.536-17.94,22.125-23.095a70.078,70.078,0,0,1,61.062-1.968,28.96,28.96,0,0,0-23.437,13.755c-4.314,7.187-5.275,15.908-8.9,23.483a36.952,36.952,0,0,1-47.289,18.476" transform="translate(-11.785 -37.378)" fill="#2f2e41"/>
    <path id="Path_50" data-name="Path 50" d="M225.009,515.492c-8.739-10.3-9.9-26.864-8.619-40.323s4.453-26.993,2.282-40.333c-1.256-7.917-4.323-15.464-5.367-23.409s.434-16.915,6.587-22.042c7.067-5.931,18.2-4.443,25.571,1.035s11.6,14.217,14.716,22.873c6.836,19.039,9.358,40.111,3.723,59.511s-18.818,36.795-38.162,42.651" transform="translate(-11.003 -28.04)" fill="#2f2e41"/>
    <path id="Path_51" data-name="Path 51" d="M221.428,610a8.417,8.417,0,0,1,0-1.183v-3.409c.12-2.965.406-7.233,1.072-12.48a161.221,161.221,0,0,1,3.353-18.291,84.381,84.381,0,0,1,8.314-21.183,87.7,87.7,0,0,1,13.654-18.236,86.709,86.709,0,0,1,14.319-11.871c2.18-1.478,4.286-2.651,6.106-3.7s3.483-1.774,4.813-2.411l3.15-1.321a5.934,5.934,0,0,1,1.109-.416,9.472,9.472,0,0,1-1.053.545l-3.085,1.487c-1.3.684-2.965,1.478-4.739,2.522s-3.871,2.263-6.023,3.788A89.358,89.358,0,0,0,234.832,553.9c-8.037,14.051-10.245,28.831-11.861,39.178-.721,5.238-1.09,9.487-1.284,12.443-.092,1.478-.148,2.559-.194,3.39A6.384,6.384,0,0,1,221.428,610Z" transform="translate(-11.644 -37.942)" fill="#2f2e41"/>
    <path id="Path_52" data-name="Path 52" d="M138.654,482.18c-16.176,9.755-16.111,18.633-13.34,27s12.61,14.208,20.841,11.086c4.619-1.774,8.018-5.811,10.891-9.866s5.543-8.406,9.607-11.326,9.875-4.037,13.922-1.146" transform="translate(-4.214 -35.402)" fill="#2f2e41"/>
    <g id="Group_13" data-name="Group 13" transform="translate(119.702 446.778)" opacity="0.3">
      <path id="Path_53" data-name="Path 53" d="M138.654,482.18c-16.176,9.755-16.111,18.633-13.34,27s12.61,14.208,20.841,11.086c4.619-1.774,8.018-5.811,10.891-9.866s5.543-8.406,9.607-11.326,9.875-4.037,13.922-1.146" transform="translate(-123.916 -482.18)"/>
    </g>
    <path id="Path_54" data-name="Path 54" d="M126.754,491.944c4.222-5.848,14.67-7.538,21.247-4.619s11.427,8.684,15.7,14.42,8.527,11.861,14.513,15.88,14.356,5.469,20.323,1.478a17.413,17.413,0,0,0,6.891-11.945,39.575,39.575,0,0,0-.924-14.1c-1.487-6.781-3.751-13.857-9.182-18.162-6.042-4.8-14.439-5.025-22.171-4.776-8.9.286-17.792.924-26.153,4.018s-16.795,9.691-20.323,17.792" transform="translate(-4.425 -34.478)" fill="#2f2e41"/>
    <path id="Path_55" data-name="Path 55" d="M203.443,593.806a1.182,1.182,0,0,1,0-.36v-1.035c0-.979,0-2.328-.129-4.018-.111-3.538-.259-8.564-.434-14.781s-.443-13.654-.924-21.866-1.062-17.275-2.309-26.688a86.628,86.628,0,0,0-2.688-13.534A71.446,71.446,0,0,0,185.632,489.8a65.588,65.588,0,0,0-6.827-7.492,49.8,49.8,0,0,0-12.1-8.24c-.785-.37-1.478-.721-2.088-.979l-1.589-.61-.924-.379-.323-.166.351.092,1,.323,1.626.573c.637.222,1.33.564,2.134.924a48.313,48.313,0,0,1,12.333,8.129,63.742,63.742,0,0,1,6.956,7.51,69.189,69.189,0,0,1,6.291,9.848,71.131,71.131,0,0,1,5.044,11.954,84.924,84.924,0,0,1,2.707,13.663c1.266,9.441,1.848,18.476,2.273,26.688s.619,15.649.758,21.894.157,11.28.194,14.781v5.025a1.69,1.69,0,0,1,0,.471Z" transform="translate(-7.1 -34.621)" fill="#2f2e41"/>
    <path id="Path_56" data-name="Path 56" d="M212.955,597a45.411,45.411,0,0,1-1.764-6.956,72.544,72.544,0,0,1-.748-19.492,130.08,130.08,0,0,1,6.152-28.24c3.326-10.374,7.834-21.524,11.667-33.469a152.285,152.285,0,0,0,4.619-17.718,157.962,157.962,0,0,0,2.3-16.9,245.208,245.208,0,0,0,.517-28.9c-.277-8.24-.721-14.9-.988-19.492l-.314-5.293v-1.376a2.016,2.016,0,0,1,0-.471,1.848,1.848,0,0,1,0,.453c0,.36.074.8.139,1.386q.157,1.848.443,5.284c.351,4.619.868,11.252,1.21,19.5a238.531,238.531,0,0,1-.351,28.961,156.276,156.276,0,0,1-2.273,16.97,151.162,151.162,0,0,1-4.619,17.792c-3.871,12.009-8.388,23.095-11.723,33.46a131.91,131.91,0,0,0-6.291,28.166,75.75,75.75,0,0,0,.508,19.4c.4,2.273.767,4.019,1.081,5.192.139.564.249,1.007.323,1.33a2.035,2.035,0,0,1,.111.406Z" transform="translate(-10.782 -30.565)" fill="#2f2e41"/>
    <path id="Path_57" data-name="Path 57" d="M221.428,610a8.417,8.417,0,0,1,0-1.183v-3.409c.12-2.965.406-7.233,1.072-12.48a161.221,161.221,0,0,1,3.353-18.291,84.381,84.381,0,0,1,8.314-21.183,87.7,87.7,0,0,1,13.654-18.236,86.709,86.709,0,0,1,14.319-11.871c2.18-1.478,4.286-2.651,6.106-3.7s3.483-1.774,4.813-2.411l3.15-1.321a5.934,5.934,0,0,1,1.109-.416,9.472,9.472,0,0,1-1.053.545l-3.085,1.487c-1.3.684-2.965,1.478-4.739,2.522s-3.871,2.263-6.023,3.788A89.358,89.358,0,0,0,234.832,553.9c-8.037,14.051-10.245,28.831-11.861,39.178-.721,5.238-1.09,9.487-1.284,12.443-.092,1.478-.148,2.559-.194,3.39A6.384,6.384,0,0,1,221.428,610Z" transform="translate(-11.644 -37.942)" fill="#2f2e41"/>
    <path id="Path_58" data-name="Path 58" d="M203.443,593.806a1.182,1.182,0,0,1,0-.36v-1.035c0-.979,0-2.328-.129-4.018-.111-3.538-.259-8.564-.434-14.781s-.443-13.654-.924-21.866-1.062-17.275-2.309-26.688a86.628,86.628,0,0,0-2.688-13.534A71.446,71.446,0,0,0,185.632,489.8a65.588,65.588,0,0,0-6.827-7.492,49.8,49.8,0,0,0-12.1-8.24c-.785-.37-1.478-.721-2.088-.979l-1.589-.61-.924-.379-.323-.166.351.092,1,.323,1.626.573c.637.222,1.33.564,2.134.924a48.313,48.313,0,0,1,12.333,8.129,63.742,63.742,0,0,1,6.956,7.51,69.189,69.189,0,0,1,6.291,9.848,71.131,71.131,0,0,1,5.044,11.954,84.924,84.924,0,0,1,2.707,13.663c1.266,9.441,1.848,18.476,2.273,26.688s.619,15.649.758,21.894.157,11.28.194,14.781v5.025a1.69,1.69,0,0,1,0,.471Z" transform="translate(-7.1 -34.621)" fill="#2f2e41"/>
    <path id="Path_59" data-name="Path 59" d="M212.955,597a45.411,45.411,0,0,1-1.764-6.956,72.544,72.544,0,0,1-.748-19.492,130.08,130.08,0,0,1,6.152-28.24c3.326-10.374,7.834-21.524,11.667-33.469a152.285,152.285,0,0,0,4.619-17.718,157.962,157.962,0,0,0,2.3-16.9,245.208,245.208,0,0,0,.517-28.9c-.277-8.24-.721-14.9-.988-19.492l-.314-5.293v-1.376a2.016,2.016,0,0,1,0-.471,1.848,1.848,0,0,1,0,.453c0,.36.074.8.139,1.386q.157,1.848.443,5.284c.351,4.619.868,11.252,1.21,19.5a238.531,238.531,0,0,1-.351,28.961,156.276,156.276,0,0,1-2.273,16.97,151.162,151.162,0,0,1-4.619,17.792c-3.871,12.009-8.388,23.095-11.723,33.46a131.91,131.91,0,0,0-6.291,28.166,75.75,75.75,0,0,0,.508,19.4c.4,2.273.767,4.019,1.081,5.192.139.564.249,1.007.323,1.33a2.035,2.035,0,0,1,.111.406Z" transform="translate(-10.782 -30.565)" fill="#2f2e41"/>
    <g id="Group_14" data-name="Group 14" transform="translate(154.68 388.135)" opacity="0.2">
      <path id="Path_60" data-name="Path 60" d="M221.428,610a8.417,8.417,0,0,1,0-1.183v-3.409c.12-2.965.406-7.233,1.072-12.48a161.221,161.221,0,0,1,3.353-18.291,84.381,84.381,0,0,1,8.314-21.183,87.7,87.7,0,0,1,13.654-18.236,86.709,86.709,0,0,1,14.319-11.871c2.18-1.478,4.286-2.651,6.106-3.7s3.483-1.774,4.813-2.411l3.15-1.321a5.934,5.934,0,0,1,1.109-.416,9.472,9.472,0,0,1-1.053.545l-3.085,1.487c-1.3.684-2.965,1.478-4.739,2.522s-3.871,2.263-6.023,3.788A89.358,89.358,0,0,0,234.832,553.9c-8.037,14.051-10.245,28.831-11.861,39.178-.721,5.238-1.09,9.487-1.284,12.443-.092,1.478-.148,2.559-.194,3.39A6.384,6.384,0,0,1,221.428,610Z" transform="translate(-166.324 -426.078)"/>
      <path id="Path_61" data-name="Path 61" d="M203.443,593.806a1.182,1.182,0,0,1,0-.36v-1.035c0-.979,0-2.328-.129-4.018-.111-3.538-.259-8.564-.434-14.781s-.443-13.654-.924-21.866-1.062-17.275-2.309-26.688a86.628,86.628,0,0,0-2.688-13.534A71.446,71.446,0,0,0,185.632,489.8a65.588,65.588,0,0,0-6.827-7.492,49.8,49.8,0,0,0-12.1-8.24c-.785-.37-1.478-.721-2.088-.979l-1.589-.61-.924-.379-.323-.166.351.092,1,.323,1.626.573c.637.222,1.33.564,2.134.924a48.313,48.313,0,0,1,12.333,8.129,63.742,63.742,0,0,1,6.956,7.51,69.189,69.189,0,0,1,6.291,9.848,71.131,71.131,0,0,1,5.044,11.954,84.924,84.924,0,0,1,2.707,13.663c1.266,9.441,1.848,18.476,2.273,26.688s.619,15.649.758,21.894.157,11.28.194,14.781v5.025a1.69,1.69,0,0,1,0,.471Z" transform="translate(-161.78 -422.757)"/>
      <path id="Path_62" data-name="Path 62" d="M212.955,597a45.411,45.411,0,0,1-1.764-6.956,72.544,72.544,0,0,1-.748-19.492,130.08,130.08,0,0,1,6.152-28.24c3.326-10.374,7.834-21.524,11.667-33.469a152.285,152.285,0,0,0,4.619-17.718,157.962,157.962,0,0,0,2.3-16.9,245.208,245.208,0,0,0,.517-28.9c-.277-8.24-.721-14.9-.988-19.492l-.314-5.293v-1.376a2.016,2.016,0,0,1,0-.471,1.848,1.848,0,0,1,0,.453c0,.36.074.8.139,1.386q.157,1.848.443,5.284c.351,4.619.868,11.252,1.21,19.5a238.531,238.531,0,0,1-.351,28.961,156.276,156.276,0,0,1-2.273,16.97,151.162,151.162,0,0,1-4.619,17.792c-3.871,12.009-8.388,23.095-11.723,33.46a131.91,131.91,0,0,0-6.291,28.166,75.75,75.75,0,0,0,.508,19.4c.4,2.273.767,4.019,1.081,5.192.139.564.249,1.007.323,1.33a2.035,2.035,0,0,1,.111.406Z" transform="translate(-165.463 -418.7)"/>
    </g>
    <path id="Path_63" data-name="Path 63" d="M183.23,617.8l9.487,43.834h41.238l8.878-43.834Z" transform="translate(-9.038 -49.941)" fill="#2f2e41"/>
    <path id="Path_64" data-name="Path 64" d="M183.23,617.8l9.487,43.834h41.238l8.878-43.834Z" transform="translate(-8.161 -54.105)" opacity="0.2"/>
    <path id="Path_65" data-name="Path 65" d="M238.317,642.492a31.815,31.815,0,0,0-6.688-3.843,23.611,23.611,0,0,0-8.139-1.626,28.407,28.407,0,0,0-9.986,1.848c-3.455,1.173-6.688,2.531-9.829,3.27a23.327,23.327,0,0,1-8.508.259,17.5,17.5,0,0,1-5.46-1.718,8.848,8.848,0,0,1-1.312-.85c-.286-.2-.434-.323-.416-.351s.647.379,1.848.924a19.317,19.317,0,0,0,5.413,1.487,23.806,23.806,0,0,0,8.314-.406c3.039-.748,6.273-2.134,9.755-3.3a28.3,28.3,0,0,1,10.245-1.848,23.52,23.52,0,0,1,8.314,1.848,21.349,21.349,0,0,1,4.942,2.882,15.281,15.281,0,0,1,1.182,1.016C238.2,642.354,238.336,642.492,238.317,642.492Z" transform="translate(-9.096 -47.151)" opacity="0.1"/>
    <path id="Path_66" data-name="Path 66" d="M237.844,645.688a33.456,33.456,0,0,0-6.42-3.778,21.789,21.789,0,0,0-7.843-1.617,28.268,28.268,0,0,0-9.617,1.737c-3.353,1.127-6.467,2.411-9.478,3.224a24.483,24.483,0,0,1-8.185.924,14.106,14.106,0,0,1-5.349-1.478,10.334,10.334,0,0,1-1.275-.822c-.277-.2-.416-.323-.4-.342s.637.37,1.792.924a14.846,14.846,0,0,0,5.275,1.173,24.583,24.583,0,0,0,7.945-1.053c2.965-.813,6.051-2.134,9.45-3.261a28.028,28.028,0,0,1,9.894-1.718,21.673,21.673,0,0,1,8.028,1.848,20.868,20.868,0,0,1,4.739,2.873,11.5,11.5,0,0,1,1.127.988,2.858,2.858,0,0,1,.314.379Z" transform="translate(-9.195 -47.399)" fill="#fff"/>
    <path id="Path_67" data-name="Path 67" d="M238.985,639.315a35.551,35.551,0,0,0-6.864-4.046,25.183,25.183,0,0,0-8.314-2,26.791,26.791,0,0,0-10.383,1.8,95.708,95.708,0,0,1-10.162,3.344,26.508,26.508,0,0,1-8.794,0,19.722,19.722,0,0,1-5.617-1.764,9.87,9.87,0,0,1-1.367-.841c-.3-.222-.443-.342-.434-.37s.674.4,1.912.924a22.355,22.355,0,0,0,5.607,1.487,26.645,26.645,0,0,0,8.564-.166,104.962,104.962,0,0,0,10.088-3.363,26.68,26.68,0,0,1,10.577-1.848,24.85,24.85,0,0,1,8.5,2.2,23.819,23.819,0,0,1,5.072,3.058,13.1,13.1,0,0,1,1.21,1.044C238.884,639.158,239,639.287,238.985,639.315Z" transform="translate(-9.025 -46.856)" fill="#fff"/>
    <path id="Path_68" data-name="Path 68" d="M250.155,618.4h-75.9L172.52,603.79h77.635Z" transform="translate(-6.467 -45.659)" fill="#2f2e41"/>
    <path id="Path_69" data-name="Path 69" d="M382.66,246.433V240.29s13.552,7.9,27.557,1.644C410.217,241.934,402.115,250.683,382.66,246.433Z" transform="translate(-23.933 -16.968)" fill="#f4a48e"/>
    <ellipse id="Ellipse_39" data-name="Ellipse 39" cx="8.009" cy="10.642" rx="8.009" ry="10.642" transform="translate(328.014 182.337) rotate(-22.81)" fill="#f9b499"/>
    <ellipse id="Ellipse_40" data-name="Ellipse 40" cx="10.642" cy="8.009" rx="10.642" ry="8.009" transform="translate(399.429 196.937) rotate(-72.48)" fill="#f9b499"/>
    <path id="Path_70" data-name="Path 70" d="M358.677,190.749s-7.243-9.238-4.314-17.432a12.8,12.8,0,0,0,4.157-2.4c.24-.2.536-.277.674,0,.5,1.09,6.568,1.192,8.407,2.023,0,0-4.37,16.1-4.619,18.337A16.972,16.972,0,0,0,358.677,190.749Z" transform="translate(-21.723 -11.667)" opacity="0.2"/>
    <ellipse id="Ellipse_41" data-name="Ellipse 41" cx="33.016" cy="41.996" rx="33.016" ry="41.996" transform="translate(340.907 144.033)" fill="#f9b499"/>
    <path id="Path_71" data-name="Path 71" d="M427.814,190.477s-1.626-18.707-11-27.714c0,0-12.517,7.39-18.54,7.307a2.771,2.771,0,0,1-2.67-2.993,9.081,9.081,0,0,1,3.437-6.467s-35.474,20.185-40.693,7.261c0,0-8.933,5.848-9.718-.222,0,0,0-4.3,5.672-7.825,0,0-12.7,1.173-11.723-4.684,0,0-.4-5.866,13.284-6.467,0,0-15.825-4.693-9.182-11.723,0,0,1.552-2.374,10.457,1.358a3.446,3.446,0,0,0,4.619-2.014V136.2s-15.7-2.965-7.095-13.127c0,0,3.224-1.561,3.372,2.771,0,0,2.688,4.693,10.892,5.478,0,0,13.857.194,24.425-2.346,0,0,16.628-3.483,29.45,8.212a27.345,27.345,0,0,1,6.014,8.314,11.3,11.3,0,0,0,3.427,4.286,13.8,13.8,0,0,1,3.575,3.409c3.418,5.072,9.016,17.349-1.515,33.875C434.326,187.059,429.8,186.727,427.814,190.477Z" transform="translate(-20.874 -8.014)" fill="#2f2e41"/>
  </g>
</svg>
