<svg xmlns="http://www.w3.org/2000/svg" width="301" height="242.995" viewBox="0 0 301 242.995">
  <g id="Grades" transform="translate(-68.62 -69.152)">
    <rect id="Rectangle_123" data-name="Rectangle 123" width="7.689" height="4.718" transform="translate(192.384 296.43)" fill="#f9b499"/>
    <rect id="Rectangle_124" data-name="Rectangle 124" width="7.689" height="4.718" transform="translate(211.724 296.43)" fill="#f9b499"/>
    <path id="Path_1" data-name="Path 1" d="M356.569,495l-3.851-48.142L351,402h41.127l-1.463,34.268L385.838,495H375.827s-.826-37.4-.318-47.316a24.96,24.96,0,0,0-.1-3.809l-3.859-38.036-3.268,29.376a151.946,151.946,0,0,0-.93,16.775V495Z" transform="translate(-165.71 -197.082)" fill="#1b262c"/>
    <rect id="Rectangle_125" data-name="Rectangle 125" width="41.011" height="2.735" transform="translate(185.278 204.914)" opacity="0.2"/>
    <path id="Path_2" data-name="Path 2" d="M355.906,179.686s-3.239-4.132-1.929-7.8a5.727,5.727,0,0,0,1.859-1.074c.107-.091.24-.124.3,0,.223.488,2.938.533,3.76.9,0,0-1.954,7.2-2.066,8.2A7.592,7.592,0,0,0,355.906,179.686Z" transform="translate(-167.274 -61.367)" fill="#2f2e41"/>
    <path id="Path_3" data-name="Path 3" d="M314.59,280.5l11.069,9.09,6.293-6.759-2.318,32.281H370.76l-3.38-32.392,5.826,5.012.934-24s-8.974-8.528-17.357-9.792H343.194s-9.379,1.748-13.457,7.338Z" transform="translate(-144.343 -110.196)" fill="#5a00cc"/>
    <path id="Path_4" data-name="Path 4" d="M313.417,321.93s-5.47,6.511-3.607,9.656c0,0,1.516,5.127,20.972,19.109l4.078-4.078-15.614-16.659L320.813,328Z" transform="translate(-141.311 -150.094)" fill="#f9b499"/>
    <path id="Path_5" data-name="Path 5" d="M361.12,385.758l4.078-4.078,8.015,3.367a2.677,2.677,0,0,1,1,4.165l-2.173,2.628a2.681,2.681,0,0,1-3.785.339Z" transform="translate(-171.649 -185.158)" fill="#f9b499"/>
    <path id="Path_6" data-name="Path 6" d="M347.293,642.756s-.467-8.387,7.925-9.09v-1.979s4.425-.583,5.826,1.281c0,0,2.5-1.4,3.2,0l1.806,9.788Z" transform="translate(-163.532 -331.82)" fill="#5a00cc"/>
    <path id="Path_7" data-name="Path 7" d="M427.948,642.756s.467-8.387-7.92-9.09v-1.979s-4.429-.583-5.826,1.281c0,0-2.508-1.4-3.206,0l-1.806,9.788Z" transform="translate(-199.858 -331.82)" fill="#5a00cc"/>
    <path id="Path_8" data-name="Path 8" d="M373.644,636.3a11.481,11.481,0,0,0-7.164-2.508V631.81S371.9,632.393,373.644,636.3Z" transform="translate(-174.794 -331.942)" opacity="0.2"/>
    <path id="Path_9" data-name="Path 9" d="M417.79,636.3a11.467,11.467,0,0,1,7.164-2.508V631.81S419.529,632.393,417.79,636.3Z" transform="translate(-204.905 -331.942)" opacity="0.2"/>
    <path id="Path_10" data-name="Path 10" d="M490.905,314.848l-42.308-1.3L447.25,257.29q9.961.434,20.658.463,11.5,0,22.154-.463Q490.488,286.092,490.905,314.848Z" transform="translate(-222.193 -112.161)" fill="#ccc"/>
    <g id="Group_4" data-name="Group 4" transform="translate(230.602 155.4)" opacity="0.2">
      <path id="Path_11" data-name="Path 11" d="M476.887,283.666c-8.168,0-16.085-.545-16.217-.554l.029-.413c.223,0,22.493,1.549,30.8-.549l.1.413C488.2,283.41,482.481,283.666,476.887,283.666Z" transform="translate(-460.67 -282.15)"/>
    </g>
    <g id="Group_5" data-name="Group 5" transform="translate(231.436 160.957)" opacity="0.2">
      <path id="Path_12" data-name="Path 12" d="M478.907,297.116c-8.164,0-16.085-.545-16.217-.554l.029-.413c.223,0,22.493,1.549,30.8-.55l.1.392C490.215,296.86,484.5,297.116,478.907,297.116Z" transform="translate(-462.69 -295.6)"/>
    </g>
    <g id="Group_6" data-name="Group 6" transform="translate(231.428 167.551)" opacity="0.2">
      <path id="Path_13" data-name="Path 13" d="M462.715,313.345l-.045-.413c.169,0,16.94-1.938,30.066-1.206l-.025.413C479.622,311.408,462.885,313.329,462.715,313.345Z" transform="translate(-462.67 -311.561)"/>
    </g>
    <g id="Group_7" data-name="Group 7" transform="translate(231.002 174.131)" opacity="0.2">
      <rect id="Rectangle_126" data-name="Rectangle 126" width="0.409" height="30.128" transform="translate(0 0.409) rotate(-89.12)"/>
    </g>
    <g id="Group_8" data-name="Group 8" transform="translate(232.003 178.756)" opacity="0.2">
      <path id="Path_14" data-name="Path 14" d="M464.072,340.015l-.012-.409,28.455-.925.012.409Z" transform="translate(-464.06 -338.68)"/>
    </g>
    <g id="Group_9" data-name="Group 9" transform="translate(232.837 184.408)" opacity="0.2">
      <path id="Path_15" data-name="Path 15" d="M466.088,353.141l-.008-.409,26.976-.372,0,.409Z" transform="translate(-466.08 -352.36)"/>
    </g>
    <g id="Group_10" data-name="Group 10" transform="translate(233.292 189.513)" opacity="0.2">
      <rect id="Rectangle_127" data-name="Rectangle 127" width="27.166" height="0.409" transform="translate(0 0.635) rotate(-1.34)"/>
    </g>
    <g id="Group_11" data-name="Group 11" transform="translate(233.304 194.605)" opacity="0.2">
      <path id="Path_16" data-name="Path 16" d="M467.214,377.726l0-.409,27.157-.277,0,.409Z" transform="translate(-467.21 -377.04)"/>
    </g>
    <path id="Path_17" data-name="Path 17" d="M486.618,258.35l-.26,2.653a1.826,1.826,0,0,0,1.9,2l6.111-.273a1.83,1.83,0,0,0,1.719-2.136l-.388-2.248Z" transform="translate(-245.137 -112.783)" fill="#f9b499"/>
    <path id="Path_18" data-name="Path 18" d="M489.148,249.883,487,252.618l12.973-.037-2.384-2.4a3.421,3.421,0,0,0-1.839-.959l-3.305-.578A3.409,3.409,0,0,0,489.148,249.883Z" transform="translate(-245.519 -107.052)" fill="#f9b499"/>
    <path id="Path_19" data-name="Path 19" d="M382.66,234.13h13.589v10.147a3.442,3.442,0,0,1-3.442,3.442h-6.7a3.442,3.442,0,0,1-3.442-3.442V234.13Z" transform="translate(-184.289 -98.57)" fill="#f9b499"/>
    <path id="Path_20" data-name="Path 20" d="M510.627,284.08a5.917,5.917,0,0,1-4.156-1.446,5.131,5.131,0,0,1-1.566-4.132c.583-9.614,8.883-10.238,8.966-10.242l.025.413c-.326,0-8.024.616-8.581,9.862a4.784,4.784,0,0,0,1.43,3.814,5.61,5.61,0,0,0,4.132,1.335,8.991,8.991,0,0,0,6.354-2.967,6.457,6.457,0,0,0,1.992-4.867c-.157-1.806-1.339-3.578-3.508-5.272l.252-.322c2.264,1.764,3.5,3.636,3.661,5.561a6.816,6.816,0,0,1-2.095,5.173,9.4,9.4,0,0,1-6.648,3.1Z" transform="translate(-256.016 -118.599)" fill="#2f2e41"/>
    <path id="Path_21" data-name="Path 21" d="M518.275,283.2l-.4-.054,1.388-10.019,4.652,9.4-.368.182-4.061-8.21Z" transform="translate(-263.635 -121.457)" fill="#2f2e41"/>
    <path id="Path_22" data-name="Path 22" d="M510.711,288.744l-.091-.413a65.891,65.891,0,0,1,8.573-1.471v.413A69.578,69.578,0,0,0,510.711,288.744Z" transform="translate(-259.38 -129.514)" fill="#2f2e41"/>
    <path id="Path_23" data-name="Path 23" d="M632.172,313.175s-5.251-.38-4.768,11.4a136.562,136.562,0,0,0,1.686,18.055s-.161,2.6-2.182,2.095-5.83-3.049-7.706-1.153-1.24,4.991,1.326,8.553,7.958,11.569,8.441,12.292.661,2.066-.768,1.917-11.106-3.409-12.4,1.277,7.553,13.42,8.5,14.395.992,1.582.607,2.173-3.524-.826-6.317-1.653-6.173-1.285-6.681,1.479,3.371,10.858,17.94,19.357l7.024,3.5,6.631-4.231c13.635-9.945,16.7-18.357,15.911-21.071s-4.132-1.9-6.764-.826-5.689,2.81-6.131,2.268-.45-1.169.413-2.231,8.759-10.606,7.024-15.167-11.048-.306-12.457-.033-1.359-1.074-.963-1.83,4.958-9.284,7.173-13.073,2.607-6.883.471-8.623-5.594,1.206-7.553,1.925-2.38-1.876-2.38-1.876a136.368,136.368,0,0,0-.124-18.13c-.694-11.771-6-10.837-6-10.837" transform="translate(-318.801 -144.917)" fill="#ebebeb"/>
    <path id="Path_24" data-name="Path 24" d="M661.936,338.8v.244c0,.165.033.413.062.723.037.665.1,1.587.186,2.781.157,2.417.372,5.912.607,10.234.479,8.619,1.041,20.588,1.62,33.781s1.107,25.145,1.537,33.813c.219,4.313.413,7.809.516,10.234.062,1.2.107,2.136.14,2.785a4.478,4.478,0,0,0,.033.731q.006.122,0,.244v-.244c0-.161-.033-.413-.058-.723-.041-.661-.107-1.587-.186-2.785-.165-2.413-.372-5.908-.611-10.23-.479-8.619-1.041-20.592-1.62-33.814s-1.1-25.141-1.537-33.813c-.219-4.309-.413-7.8-.525-10.234-.05-1.2-.1-2.136-.132-2.785a4.4,4.4,0,0,0-.033-.723A1.928,1.928,0,0,1,661.936,338.8Z" transform="translate(-348.176 -159.994)" fill="#e0e0e0"/>
    <path id="Path_25" data-name="Path 25" d="M642.09,396a2.143,2.143,0,0,1,.438.355c.273.248.665.62,1.116,1.07.921.921,2.169,2.219,3.512,3.677l3.429,3.747,1.041,1.132a2.591,2.591,0,0,1,.364.434,2.446,2.446,0,0,1-.438-.359c-.273-.244-.661-.611-1.107-1.074-.913-.93-2.14-2.239-3.487-3.7l-3.454-3.719-1.037-1.153A2.437,2.437,0,0,1,642.09,396Z" transform="translate(-336.531 -193.561)" fill="#e0e0e0"/>
    <path id="Path_26" data-name="Path 26" d="M667.739,403.913c-.054-.054,2.5-2.735,5.718-5.97s5.863-5.855,5.917-5.784-2.508,2.731-5.722,5.966S667.788,403.962,667.739,403.913Z" transform="translate(-351.583 -191.306)" fill="#e0e0e0"/>
    <path id="Path_27" data-name="Path 27" d="M667.66,458.874a2.519,2.519,0,0,1,.488-.314l1.372-.769c1.157-.661,2.752-1.549,4.479-2.611s3.256-2.066,4.355-2.805l1.326-.868a2.627,2.627,0,0,1,.5-.3,4.444,4.444,0,0,1-.438.384c-.289.231-.715.549-1.239.942-1.074.781-2.591,1.814-4.322,2.892a51.443,51.443,0,0,1-4.545,2.545c-.591.306-1.074.545-1.413.7A2.067,2.067,0,0,1,667.66,458.874Z" transform="translate(-351.537 -225.96)" fill="#e0e0e0"/>
    <path id="Path_28" data-name="Path 28" d="M639.56,452.55a2.15,2.15,0,0,1,.492.236c.3.157.735.413,1.264.7,1.066.6,2.533,1.458,4.132,2.413s3.057,1.834,4.1,2.479c.521.322.942.587,1.24.781a2.226,2.226,0,0,1,.413.31,1.716,1.716,0,0,1-.483-.223c-.306-.161-.735-.413-1.273-.7-1.062-.611-2.529-1.458-4.132-2.421s-3.053-1.839-4.094-2.479c-.525-.326-.942-.591-1.24-.785A1.748,1.748,0,0,1,639.56,452.55Z" transform="translate(-335.047 -226.747)" fill="#e0e0e0"/>
    <path id="Path_29" data-name="Path 29" d="M634,495.94a2.585,2.585,0,0,1,.616.3l1.632.892c1.372.768,3.256,1.851,5.305,3.057s3.942,2.314,5.3,3.124l1.595.975a3.484,3.484,0,0,1,.562.388,3.387,3.387,0,0,1-.616-.3l-1.653-.9c-1.372-.768-3.264-1.851-5.305-3.057s-3.946-2.314-5.305-3.124l-1.591-.971A3.48,3.48,0,0,1,634,495.94Z" transform="translate(-331.784 -252.209)" fill="#e0e0e0"/>
    <path id="Path_30" data-name="Path 30" d="M669.61,501.886a4.637,4.637,0,0,1,.612-.413l1.7-1.037c1.442-.876,3.421-2.095,5.569-3.491s4.074-2.719,5.45-3.681l1.653-1.14a3.869,3.869,0,0,1,.624-.413,4.822,4.822,0,0,1-.566.479c-.364.289-.909.7-1.582,1.206-1.326,1-3.256,2.347-5.417,3.752s-4.161,2.6-5.619,3.433c-.735.413-1.322.744-1.748.963A4.274,4.274,0,0,1,669.61,501.886Z" transform="translate(-352.681 -249.727)" fill="#e0e0e0"/>
    <path id="Path_31" data-name="Path 31" d="M667.576,545.61H648.19l6.326,47.894h6.73Z" transform="translate(-340.111 -281.357)" fill="#e0e0e0"/>
    <path id="Path_32" data-name="Path 32" d="M650.61,557.113s0,.07.107.174a1.178,1.178,0,0,0,.471.331,2.318,2.318,0,0,0,2.041-.252,17.187,17.187,0,0,1,2.52-1.653,5.479,5.479,0,0,1,3.561.066,15.287,15.287,0,0,1,3.305,1.611,24.5,24.5,0,0,0,2.7,1.446,7.246,7.246,0,0,0,1.991.574,3.186,3.186,0,0,0,.562.041h.2a9.914,9.914,0,0,1-2.652-.8,26.141,26.141,0,0,1-2.661-1.487,14.666,14.666,0,0,0-3.38-1.653,5.669,5.669,0,0,0-3.76-.041,4.925,4.925,0,0,0-1.417.876,10.543,10.543,0,0,1-1.107.855,2.309,2.309,0,0,1-1.892.331,2.067,2.067,0,0,1-.587-.421Z" transform="translate(-341.531 -286.969)" fill="#f5f5f5"/>
    <path id="Path_33" data-name="Path 33" d="M652.33,576.214s.153-.2.459-.516a4.4,4.4,0,0,1,1.549-.983,6.875,6.875,0,0,1,2.694-.413,27.4,27.4,0,0,1,3.375.458,11.807,11.807,0,0,0,3.454.145,9.617,9.617,0,0,0,2.719-.777,8.315,8.315,0,0,0,1.628-.971,2.146,2.146,0,0,0,.516-.467,17.11,17.11,0,0,1-2.239,1.239,10.148,10.148,0,0,1-2.653.661,11.978,11.978,0,0,1-3.367-.165,25.733,25.733,0,0,0-3.413-.438,6.8,6.8,0,0,0-2.793.483,4.082,4.082,0,0,0-1.558,1.107,2.767,2.767,0,0,0-.293.413A.553.553,0,0,0,652.33,576.214Z" transform="translate(-342.541 -297.249)" fill="#f5f5f5"/>
    <path id="Path_34" data-name="Path 34" d="M669.361,590.75a1.651,1.651,0,0,0-.537-.277,5.613,5.613,0,0,0-1.6-.347,10.212,10.212,0,0,0-2.434.14c-.9.145-1.872.413-2.892.611A11.877,11.877,0,0,1,659,591.2a6.334,6.334,0,0,1-2.293-.488,5.47,5.47,0,0,1-1.739-1.293,1.556,1.556,0,0,0,.326.5,4.221,4.221,0,0,0,1.339.975,6.132,6.132,0,0,0,2.376.583,11.36,11.36,0,0,0,2.962-.306c1.029-.219,1.987-.475,2.892-.661a10.845,10.845,0,0,1,2.367-.2A8.644,8.644,0,0,1,669.361,590.75Z" transform="translate(-344.09 -307.066)" fill="#f5f5f5"/>
    <path id="Path_35" data-name="Path 35" d="M658.339,610.988a3.078,3.078,0,0,1,1.876-.194,9.409,9.409,0,0,1,1.987.735,7.573,7.573,0,0,0,7.181-.368,6.97,6.97,0,0,0,1.161-.888,2.024,2.024,0,0,0,.339-.413,16.273,16.273,0,0,1-1.6,1.107,8.024,8.024,0,0,1-4.5.954c-1.839-.107-3.243-1.2-4.516-1.326a2.893,2.893,0,0,0-1.483.1C658.463,610.827,658.327,610.976,658.339,610.988Z" transform="translate(-346.066 -319.061)" fill="#f5f5f5"/>
    <path id="Path_36" data-name="Path 36" d="M661,631.039a3.718,3.718,0,0,0,1.62-.318c.975-.326,2.182-1.074,3.595-1.632a5.635,5.635,0,0,1,2.066-.413,3.718,3.718,0,0,1,1.653.376,3.887,3.887,0,0,1,1.2,1.029.979.979,0,0,0-.186-.413,2.627,2.627,0,0,0-.909-.826,3.809,3.809,0,0,0-1.756-.471,5.785,5.785,0,0,0-2.177.413c-1.463.583-2.653,1.326-3.557,1.719S661,630.993,661,631.039Z" transform="translate(-347.628 -329.924)" fill="#f5f5f5"/>
    <path id="Path_37" data-name="Path 37" d="M663.25,645.168a4.368,4.368,0,0,0,1.24.413,23.333,23.333,0,0,0,3.07.516,22.946,22.946,0,0,0,3.107.087,4.606,4.606,0,0,0,1.281-.153c0-.095-1.987,0-4.363-.252S663.271,645.094,663.25,645.168Z" transform="translate(-348.949 -339.776)" fill="#f5f5f5"/>
    <rect id="Rectangle_128" data-name="Rectangle 128" width="39.825" height="58.467" transform="translate(83.586 80.545) rotate(-13.37)" fill="#e0e0e0"/>
    <rect id="Rectangle_129" data-name="Rectangle 129" width="39.825" height="58.467" transform="translate(80.57 78.866) rotate(-13.37)" fill="#ebebeb"/>
    <rect id="Rectangle_130" data-name="Rectangle 130" width="39.825" height="57.348" transform="translate(77.458 78.361) rotate(-13.37)" fill="#f5f5f5"/>
    <path id="Path_39" data-name="Path 39" d="M142.823,63.445c0,.062-6.863,1.752-15.357,3.768s-15.4,3.615-15.415,3.541,6.863-1.748,15.362-3.768S142.806,63.358,142.823,63.445Z" transform="translate(-25.933 24.634)" fill="#e0e0e0"/>
    <path id="Path_40" data-name="Path 40" d="M145.153,73.186c0,.066-6.863,1.756-15.357,3.772s-15.4,3.615-15.415,3.541,6.859-1.752,15.362-3.768S145.136,73.108,145.153,73.186Z" transform="translate(-27.301 18.918)" fill="#e0e0e0"/>
    <path id="Path_41" data-name="Path 41" d="M147.523,83c0,.062-6.859,1.752-15.357,3.772s-15.4,3.615-15.415,3.541,6.859-1.752,15.362-3.772S147.49,82.931,147.523,83Z" transform="translate(-28.692 13.16)" fill="#e0e0e0"/>
    <path id="Path_42" data-name="Path 42" d="M149.83,92.787c0,.062-6.863,1.752-15.362,3.772s-15.4,3.6-15.4,3.533,6.859-1.756,15.362-3.772S149.814,92.721,149.83,92.787Z" transform="translate(-30.053 7.415)" fill="#e0e0e0"/>
    <path id="Path_43" data-name="Path 43" d="M152.148,102.578c0,.066-6.863,1.756-15.362,3.772s-15.395,3.615-15.407,3.541,6.859-1.752,15.357-3.768S152.128,102.516,152.148,102.578Z" transform="translate(-31.409 1.669)" fill="#e0e0e0"/>
    <path id="Path_44" data-name="Path 44" d="M154.478,112.377c0,.062-6.863,1.752-15.362,3.772s-15.395,3.615-15.407,3.541,6.854-1.752,15.357-3.772S154.458,112.316,154.478,112.377Z" transform="translate(-32.776 -4.082)" fill="#e0e0e0"/>
    <path id="Path_45" data-name="Path 45" d="M156.808,122.186c0,.062-6.863,1.748-15.362,3.768s-15.395,3.611-15.407,3.541,6.854-1.752,15.357-3.772S156.788,122.108,156.808,122.186Z" transform="translate(-34.143 -9.837)" fill="#e0e0e0"/>
    <g id="freepik--Floor--inject-4" transform="translate(68.62 311.804)">
      <path id="Path_46" data-name="Path 46" d="M369.62,660.869c0,.1-67.387.174-150.5.174s-150.5-.078-150.5-.174S136,660.7,219.12,660.7,369.62,660.77,369.62,660.869Z" transform="translate(-68.62 -660.7)" fill="#3f3d56"/>
    </g>
    <path id="Path_47" data-name="Path 47" d="M273.776,528.629a8.117,8.117,0,0,1,4.152-5.305c2.128-.93,4.772-.413,7.024.413s4.487,1.93,6.9,2.066,5.119-1,5.838-3.305c.665-2.169-.628-4.47-2.26-6.04a14.254,14.254,0,0,0-23.356,5.6" transform="translate(-119.391 -261.91)" fill="#2f2e41"/>
    <g id="Group_12" data-name="Group 12" transform="translate(152.679 250.561)" opacity="0.3">
      <path id="Path_48" data-name="Path 48" d="M273.776,528.629a8.117,8.117,0,0,1,4.152-5.305c2.128-.93,4.772-.413,7.024.413s4.487,1.93,6.9,2.066,5.119-1,5.838-3.305c.665-2.169-.628-4.47-2.26-6.04a14.254,14.254,0,0,0-23.356,5.6" transform="translate(-272.07 -512.471)"/>
    </g>
    <path id="Path_49" data-name="Path 49" d="M226.077,535.743c-3.533-3.347-3.355-9.189-1.595-13.721s5.607-8.024,9.9-10.329a31.343,31.343,0,0,1,27.31-.88,12.953,12.953,0,0,0-10.482,6.152c-1.929,3.214-2.359,7.115-3.979,10.5a16.527,16.527,0,0,1-21.15,8.263" transform="translate(-90.747 -259.347)" fill="#2f2e41"/>
    <path id="Path_50" data-name="Path 50" d="M218.37,443.679c-3.909-4.607-4.429-12.015-3.855-18.035s1.991-12.073,1.021-18.039c-.562-3.541-1.934-6.916-2.4-10.47s.194-7.565,2.946-9.858c3.161-2.652,8.139-1.987,11.436.463s5.189,6.359,6.582,10.23c3.057,8.515,4.185,17.94,1.665,26.616s-8.416,16.456-17.068,19.076" transform="translate(-84.726 -187.442)" fill="#2f2e41"/>
    <path id="Path_51" data-name="Path 51" d="M221.417,557.773a3.762,3.762,0,0,1,0-.529v-1.525c.054-1.326.182-3.235.479-5.582a72.109,72.109,0,0,1,1.5-8.181,37.739,37.739,0,0,1,3.719-9.474,39.227,39.227,0,0,1,6.107-8.156,38.781,38.781,0,0,1,6.4-5.309c.975-.661,1.917-1.186,2.731-1.653s1.558-.793,2.153-1.078l1.409-.591a2.656,2.656,0,0,1,.5-.186,4.23,4.23,0,0,1-.471.244l-1.38.665c-.583.306-1.326.661-2.12,1.128s-1.731,1.012-2.694,1.694a39.965,39.965,0,0,0-12.337,13.44c-3.595,6.284-4.582,12.895-5.305,17.522-.322,2.343-.488,4.243-.574,5.565-.041.661-.066,1.144-.087,1.516A2.856,2.856,0,0,1,221.417,557.773Z" transform="translate(-89.661 -263.694)" fill="#2f2e41"/>
    <path id="Path_52" data-name="Path 52" d="M130.508,482.18c-7.235,4.363-7.206,8.334-5.966,12.077s5.64,6.354,9.321,4.958c2.066-.793,3.586-2.6,4.871-4.413s2.479-3.76,4.3-5.065,4.417-1.806,6.226-.512" transform="translate(-32.45 -244.134)" fill="#2f2e41"/>
    <g id="Group_13" data-name="Group 13" transform="translate(91.466 238.046)" opacity="0.3">
      <path id="Path_53" data-name="Path 53" d="M130.508,482.18c-7.235,4.363-7.206,8.334-5.966,12.077s5.64,6.354,9.321,4.958c2.066-.793,3.586-2.6,4.871-4.413s2.479-3.76,4.3-5.065,4.417-1.806,6.226-.512" transform="translate(-123.916 -482.18)"/>
    </g>
    <path id="Path_54" data-name="Path 54" d="M126.713,479.847c1.888-2.615,6.561-3.371,9.5-2.066s5.111,3.884,7.024,6.45,3.814,5.305,6.491,7.1,6.421,2.446,9.09.661a7.788,7.788,0,0,0,3.082-5.342,17.7,17.7,0,0,0-.413-6.3c-.665-3.033-1.677-6.2-4.107-8.123-2.7-2.148-6.458-2.248-9.916-2.136a36.77,36.77,0,0,0-11.7,1.8c-3.739,1.384-7.511,4.334-9.09,7.958" transform="translate(-34.072 -237.021)" fill="#2f2e41"/>
    <path id="Path_55" data-name="Path 55" d="M180.414,526.439a.529.529,0,0,1,0-.161v-.463c0-.438,0-1.041-.058-1.8-.05-1.582-.116-3.83-.194-6.611s-.2-6.107-.413-9.78-.475-7.726-1.033-11.936a38.742,38.742,0,0,0-1.2-6.053,31.954,31.954,0,0,0-5.065-9.718,29.333,29.333,0,0,0-3.053-3.351,22.274,22.274,0,0,0-5.412-3.685c-.351-.165-.661-.322-.934-.438l-.711-.273-.413-.169-.145-.074.157.041.446.145.727.256c.285.1.595.252.954.413a21.608,21.608,0,0,1,5.516,3.636,28.51,28.51,0,0,1,3.111,3.359,30.944,30.944,0,0,1,2.814,4.4,31.815,31.815,0,0,1,2.256,5.346,37.983,37.983,0,0,1,1.211,6.111c.566,4.223.826,8.263,1.016,11.936s.277,7,.339,9.792.07,5.045.087,6.611v2.248a.756.756,0,0,1,0,.211Z" transform="translate(-54.669 -238.119)" fill="#2f2e41"/>
    <path id="Path_56" data-name="Path 56" d="M211.379,498.445a20.308,20.308,0,0,1-.789-3.111,32.445,32.445,0,0,1-.335-8.718,58.178,58.178,0,0,1,2.752-12.631c1.487-4.64,3.5-9.627,5.218-14.969a68.11,68.11,0,0,0,2.066-7.925,70.651,70.651,0,0,0,1.029-7.557,109.671,109.671,0,0,0,.231-12.924c-.124-3.685-.322-6.664-.442-8.718l-.14-2.367v-.616a.9.9,0,0,1,0-.211.826.826,0,0,1,0,.2c0,.161.033.359.062.62q.07.826.2,2.363c.157,2.066.388,5.032.541,8.722a106.683,106.683,0,0,1-.157,12.953,69.9,69.9,0,0,1-1.016,7.59,67.609,67.609,0,0,1-2.066,7.958c-1.731,5.371-3.752,10.329-5.243,14.965a59,59,0,0,0-2.814,12.6,33.88,33.88,0,0,0,.227,8.676c.178,1.016.343,1.8.483,2.322.062.252.112.45.145.595a.911.911,0,0,1,.05.182Z" transform="translate(-83.028 -206.882)" fill="#2f2e41"/>
    <path id="Path_57" data-name="Path 57" d="M221.417,557.773a3.762,3.762,0,0,1,0-.529v-1.525c.054-1.326.182-3.235.479-5.582a72.109,72.109,0,0,1,1.5-8.181,37.739,37.739,0,0,1,3.719-9.474,39.227,39.227,0,0,1,6.107-8.156,38.781,38.781,0,0,1,6.4-5.309c.975-.661,1.917-1.186,2.731-1.653s1.558-.793,2.153-1.078l1.409-.591a2.656,2.656,0,0,1,.5-.186,4.23,4.23,0,0,1-.471.244l-1.38.665c-.583.306-1.326.661-2.12,1.128s-1.731,1.012-2.694,1.694a39.965,39.965,0,0,0-12.337,13.44c-3.595,6.284-4.582,12.895-5.305,17.522-.322,2.343-.488,4.243-.574,5.565-.041.661-.066,1.144-.087,1.516A2.856,2.856,0,0,1,221.417,557.773Z" transform="translate(-89.661 -263.694)" fill="#2f2e41"/>
    <path id="Path_58" data-name="Path 58" d="M180.414,526.439a.529.529,0,0,1,0-.161v-.463c0-.438,0-1.041-.058-1.8-.05-1.582-.116-3.83-.194-6.611s-.2-6.107-.413-9.78-.475-7.726-1.033-11.936a38.742,38.742,0,0,0-1.2-6.053,31.954,31.954,0,0,0-5.065-9.718,29.333,29.333,0,0,0-3.053-3.351,22.274,22.274,0,0,0-5.412-3.685c-.351-.165-.661-.322-.934-.438l-.711-.273-.413-.169-.145-.074.157.041.446.145.727.256c.285.1.595.252.954.413a21.608,21.608,0,0,1,5.516,3.636,28.51,28.51,0,0,1,3.111,3.359,30.944,30.944,0,0,1,2.814,4.4,31.815,31.815,0,0,1,2.256,5.346,37.983,37.983,0,0,1,1.211,6.111c.566,4.223.826,8.263,1.016,11.936s.277,7,.339,9.792.07,5.045.087,6.611v2.248a.756.756,0,0,1,0,.211Z" transform="translate(-54.669 -238.119)" fill="#2f2e41"/>
    <path id="Path_59" data-name="Path 59" d="M211.379,498.445a20.308,20.308,0,0,1-.789-3.111,32.445,32.445,0,0,1-.335-8.718,58.178,58.178,0,0,1,2.752-12.631c1.487-4.64,3.5-9.627,5.218-14.969a68.11,68.11,0,0,0,2.066-7.925,70.651,70.651,0,0,0,1.029-7.557,109.671,109.671,0,0,0,.231-12.924c-.124-3.685-.322-6.664-.442-8.718l-.14-2.367v-.616a.9.9,0,0,1,0-.211.826.826,0,0,1,0,.2c0,.161.033.359.062.62q.07.826.2,2.363c.157,2.066.388,5.032.541,8.722a106.683,106.683,0,0,1-.157,12.953,69.9,69.9,0,0,1-1.016,7.59,67.609,67.609,0,0,1-2.066,7.958c-1.731,5.371-3.752,10.329-5.243,14.965a59,59,0,0,0-2.814,12.6,33.88,33.88,0,0,0,.227,8.676c.178,1.016.343,1.8.483,2.322.062.252.112.45.145.595a.911.911,0,0,1,.05.182Z" transform="translate(-83.028 -206.882)" fill="#2f2e41"/>
    <g id="Group_14" data-name="Group 14" transform="translate(107.111 211.818)" opacity="0.2">
      <path id="Path_60" data-name="Path 60" d="M221.417,557.773a3.762,3.762,0,0,1,0-.529v-1.525c.054-1.326.182-3.235.479-5.582a72.109,72.109,0,0,1,1.5-8.181,37.739,37.739,0,0,1,3.719-9.474,39.227,39.227,0,0,1,6.107-8.156,38.781,38.781,0,0,1,6.4-5.309c.975-.661,1.917-1.186,2.731-1.653s1.558-.793,2.153-1.078l1.409-.591a2.656,2.656,0,0,1,.5-.186,4.23,4.23,0,0,1-.471.244l-1.38.665c-.583.306-1.326.661-2.12,1.128s-1.731,1.012-2.694,1.694a39.965,39.965,0,0,0-12.337,13.44c-3.595,6.284-4.582,12.895-5.305,17.522-.322,2.343-.488,4.243-.574,5.565-.041.661-.066,1.144-.087,1.516A2.856,2.856,0,0,1,221.417,557.773Z" transform="translate(-196.771 -475.511)"/>
      <path id="Path_61" data-name="Path 61" d="M180.414,526.439a.529.529,0,0,1,0-.161v-.463c0-.438,0-1.041-.058-1.8-.05-1.582-.116-3.83-.194-6.611s-.2-6.107-.413-9.78-.475-7.726-1.033-11.936a38.742,38.742,0,0,0-1.2-6.053,31.954,31.954,0,0,0-5.065-9.718,29.333,29.333,0,0,0-3.053-3.351,22.274,22.274,0,0,0-5.412-3.685c-.351-.165-.661-.322-.934-.438l-.711-.273-.413-.169-.145-.074.157.041.446.145.727.256c.285.1.595.252.954.413a21.608,21.608,0,0,1,5.516,3.636,28.51,28.51,0,0,1,3.111,3.359,30.944,30.944,0,0,1,2.814,4.4,31.815,31.815,0,0,1,2.256,5.346,37.983,37.983,0,0,1,1.211,6.111c.566,4.223.826,8.263,1.016,11.936s.277,7,.339,9.792.07,5.045.087,6.611v2.248a.756.756,0,0,1,0,.211Z" transform="translate(-161.78 -449.937)"/>
      <path id="Path_62" data-name="Path 62" d="M211.379,498.445a20.308,20.308,0,0,1-.789-3.111,32.445,32.445,0,0,1-.335-8.718,58.178,58.178,0,0,1,2.752-12.631c1.487-4.64,3.5-9.627,5.218-14.969a68.11,68.11,0,0,0,2.066-7.925,70.651,70.651,0,0,0,1.029-7.557,109.671,109.671,0,0,0,.231-12.924c-.124-3.685-.322-6.664-.442-8.718l-.14-2.367v-.616a.9.9,0,0,1,0-.211.826.826,0,0,1,0,.2c0,.161.033.359.062.62q.07.826.2,2.363c.157,2.066.388,5.032.541,8.722a106.683,106.683,0,0,1-.157,12.953,69.9,69.9,0,0,1-1.016,7.59,67.609,67.609,0,0,1-2.066,7.958c-1.731,5.371-3.752,10.329-5.243,14.965a59,59,0,0,0-2.814,12.6,33.88,33.88,0,0,0,.227,8.676c.178,1.016.343,1.8.483,2.322.062.252.112.45.145.595a.911.911,0,0,1,.05.182Z" transform="translate(-190.139 -418.7)"/>
    </g>
    <path id="Path_63" data-name="Path 63" d="M183.23,617.8l4.243,19.6h18.444l3.971-19.6Z" transform="translate(-67.393 -325.601)" fill="#2f2e41"/>
    <path id="Path_64" data-name="Path 64" d="M183.23,617.8l4.243,19.6h18.444l3.971-19.6Z" transform="translate(-67.001 -327.463)" opacity="0.2"/>
    <path id="Path_65" data-name="Path 65" d="M210.492,639.091a14.228,14.228,0,0,0-2.991-1.719,10.562,10.562,0,0,0-3.64-.727,12.705,12.705,0,0,0-4.466.826c-1.545.525-2.991,1.132-4.4,1.463a10.434,10.434,0,0,1-3.805.116,7.825,7.825,0,0,1-2.442-.768,3.956,3.956,0,0,1-.587-.38c-.128-.091-.194-.145-.186-.157s.289.169.826.413a8.642,8.642,0,0,0,2.421.665,10.646,10.646,0,0,0,3.719-.182c1.359-.335,2.805-.954,4.363-1.475a12.659,12.659,0,0,1,4.582-.826,10.521,10.521,0,0,1,3.719.826,9.55,9.55,0,0,1,2.21,1.289,6.845,6.845,0,0,1,.529.454C210.439,639.029,210.5,639.091,210.492,639.091Z" transform="translate(-70.044 -334.6)" opacity="0.1"/>
    <path id="Path_66" data-name="Path 66" d="M211,642.322a14.966,14.966,0,0,0-2.872-1.69,9.745,9.745,0,0,0-3.508-.723,12.641,12.641,0,0,0-4.3.777c-1.5.5-2.892,1.078-4.239,1.442a10.95,10.95,0,0,1-3.661.413,6.308,6.308,0,0,1-2.392-.661,4.633,4.633,0,0,1-.57-.368c-.124-.091-.186-.145-.178-.153s.285.165.8.413a6.639,6.639,0,0,0,2.359.525,11,11,0,0,0,3.553-.471c1.326-.364,2.706-.954,4.227-1.458a12.536,12.536,0,0,1,4.425-.769,9.694,9.694,0,0,1,3.59.826,9.332,9.332,0,0,1,2.12,1.285,5.146,5.146,0,0,1,.5.442A1.277,1.277,0,0,1,211,642.322Z" transform="translate(-70.806 -336.513)" fill="#fff"/>
    <path id="Path_67" data-name="Path 67" d="M210.278,635.53a15.9,15.9,0,0,0-3.07-1.81,11.265,11.265,0,0,0-3.718-.892,11.983,11.983,0,0,0-4.644.806,42.813,42.813,0,0,1-4.545,1.5,11.86,11.86,0,0,1-3.933,0,8.821,8.821,0,0,1-2.512-.789,4.419,4.419,0,0,1-.611-.376c-.132-.1-.2-.153-.194-.165s.3.178.855.413a10,10,0,0,0,2.508.665,11.917,11.917,0,0,0,3.83-.074,46.942,46.942,0,0,0,4.512-1.5,11.933,11.933,0,0,1,4.731-.826,11.112,11.112,0,0,1,3.8.983,10.65,10.65,0,0,1,2.268,1.368,5.858,5.858,0,0,1,.541.467C210.233,635.46,210.286,635.518,210.278,635.53Z" transform="translate(-69.498 -332.328)" fill="#fff"/>
    <path id="Path_68" data-name="Path 68" d="M207.243,610.322H173.3l-.777-6.532h34.723Z" transform="translate(-60.323 -315.941)" fill="#2f2e41"/>
    <path id="Path_69" data-name="Path 69" d="M382.66,243.038V240.29s6.061,3.533,12.325.735C394.985,241.025,391.361,244.938,382.66,243.038Z" transform="translate(-184.289 -102.185)" fill="#f4a48e"/>
    <ellipse id="Ellipse_39" data-name="Ellipse 39" cx="3.582" cy="4.76" rx="3.582" ry="4.76" transform="translate(184.634 119.774) rotate(-22.81)" fill="#f9b499"/>
    <ellipse id="Ellipse_40" data-name="Ellipse 40" cx="4.76" cy="3.582" rx="4.76" ry="3.582" transform="translate(216.575 126.304) rotate(-72.48)" fill="#f9b499"/>
    <path id="Path_70" data-name="Path 70" d="M355.906,179.686s-3.239-4.132-1.929-7.8a5.727,5.727,0,0,0,1.859-1.074c.107-.091.24-.124.3,0,.223.488,2.938.533,3.76.9,0,0-1.954,7.2-2.066,8.2A7.592,7.592,0,0,0,355.906,179.686Z" transform="translate(-167.274 -61.367)" opacity="0.2"/>
    <ellipse id="Ellipse_41" data-name="Ellipse 41" cx="14.767" cy="18.783" rx="14.767" ry="18.783" transform="translate(190.401 102.643)" fill="#f9b499"/>
    <path id="Path_71" data-name="Path 71" d="M380.669,153.071s-.727-8.367-4.921-12.4c0,0-5.6,3.305-8.292,3.268a1.24,1.24,0,0,1-1.194-1.339,4.061,4.061,0,0,1,1.537-2.892s-15.866,9.028-18.2,3.247c0,0-4,2.615-4.346-.1,0,0,0-1.925,2.537-3.5,0,0-5.681.525-5.243-2.095,0,0-.178-2.624,5.941-2.892,0,0-7.078-2.1-4.107-5.243,0,0,.694-1.062,4.677.607a1.541,1.541,0,0,0,2.066-.9V128.8s-7.024-1.326-3.173-5.871c0,0,1.442-.7,1.508,1.24,0,0,1.2,2.1,4.871,2.45a52.883,52.883,0,0,0,10.924-1.049s7.437-1.558,13.172,3.673a12.23,12.23,0,0,1,2.69,3.718,5.053,5.053,0,0,0,1.533,1.917,6.173,6.173,0,0,1,1.6,1.525c1.529,2.268,4.033,7.759-.678,15.151A3.148,3.148,0,0,0,380.669,153.071Z" transform="translate(-160.735 -33.24)" fill="#2f2e41"/>
  </g>
</svg>
