<svg xmlns="http://www.w3.org/2000/svg" width="488.321" height="404.061" viewBox="0 0 488.321 404.061">
  <g id="undraw_personal_notebook_re_d7dc" transform="translate(0 0)">
    <path id="Path_72" data-name="Path 72" d="M555.3,627.7a6.3,6.3,0,0,1-3.107-.822L372.554,525.317a6.339,6.339,0,0,1-2.4-8.628L511.647,266.43a6.329,6.329,0,0,1,8.627-2.4L699.911,365.6a6.339,6.339,0,0,1,2.4,8.627L560.82,624.482A6.291,6.291,0,0,1,557,627.468a6.363,6.363,0,0,1-1.7.232Z" transform="translate(-214.804 -223.639)" fill="#e6e6e6"/>
    <rect id="Rectangle_139" data-name="Rectangle 139" width="1.467" height="218.093" transform="matrix(0.492, -0.871, 0.871, 0.492, 291.109, 53.871)" fill="#fff"/>
    <rect id="Rectangle_140" data-name="Rectangle 140" width="1.467" height="218.093" transform="matrix(0.492, -0.871, 0.871, 0.492, 278.116, 76.854)" fill="#fff"/>
    <rect id="Rectangle_141" data-name="Rectangle 141" width="1.467" height="218.093" transform="matrix(0.492, -0.871, 0.871, 0.492, 265.122, 99.838)" fill="#fff"/>
    <rect id="Rectangle_142" data-name="Rectangle 142" width="1.467" height="218.093" transform="matrix(0.492, -0.871, 0.871, 0.492, 252.128, 122.82)" fill="#fff"/>
    <rect id="Rectangle_143" data-name="Rectangle 143" width="1.467" height="218.093" transform="matrix(0.492, -0.871, 0.871, 0.492, 239.135, 145.803)" fill="#fff"/>
    <rect id="Rectangle_144" data-name="Rectangle 144" width="1.467" height="218.093" transform="matrix(0.492, -0.871, 0.871, 0.492, 226.141, 168.786)" fill="#fff"/>
    <rect id="Rectangle_145" data-name="Rectangle 145" width="1.467" height="218.093" transform="matrix(0.492, -0.871, 0.871, 0.492, 213.147, 191.769)" fill="#fff"/>
    <rect id="Rectangle_146" data-name="Rectangle 146" width="1.467" height="218.093" transform="matrix(0.492, -0.871, 0.871, 0.492, 200.154, 214.752)" fill="#fff"/>
    <rect id="Rectangle_147" data-name="Rectangle 147" width="1.467" height="218.093" transform="matrix(0.492, -0.871, 0.871, 0.492, 187.16, 237.735)" fill="#fff"/>
    <rect id="Rectangle_148" data-name="Rectangle 148" width="1.467" height="218.093" transform="matrix(0.492, -0.871, 0.871, 0.492, 174.166, 260.718)" fill="#fff"/>
    <rect id="Rectangle_149" data-name="Rectangle 149" width="1.467" height="218.093" transform="matrix(0.492, -0.871, 0.871, 0.492, 161.172, 283.701)" fill="#fff"/>
    <path id="Path_73" data-name="Path 73" d="M537.3,586.7a6.3,6.3,0,0,1-3.107-.822L354.554,484.317a6.339,6.339,0,0,1-2.4-8.627L493.647,225.43a6.329,6.329,0,0,1,8.627-2.4L681.911,324.6a6.339,6.339,0,0,1,2.4,8.627L542.819,583.482A6.291,6.291,0,0,1,539,586.468,6.366,6.366,0,0,1,537.3,586.7Z" transform="translate(-213.515 -220.702)" fill="#f2f2f2"/>
    <rect id="Rectangle_150" data-name="Rectangle 150" width="1.467" height="218.093" transform="matrix(0.492, -0.871, 0.871, 0.492, 274.399, 15.808)" fill="#fff"/>
    <rect id="Rectangle_151" data-name="Rectangle 151" width="1.467" height="218.093" transform="matrix(0.492, -0.871, 0.871, 0.492, 261.405, 38.79)" fill="#fff"/>
    <rect id="Rectangle_152" data-name="Rectangle 152" width="1.467" height="218.093" transform="matrix(0.492, -0.871, 0.871, 0.492, 248.411, 61.774)" fill="#fff"/>
    <rect id="Rectangle_153" data-name="Rectangle 153" width="1.467" height="218.093" transform="matrix(0.492, -0.871, 0.871, 0.492, 235.417, 84.757)" fill="#fff"/>
    <rect id="Rectangle_154" data-name="Rectangle 154" width="1.467" height="218.093" transform="matrix(0.492, -0.871, 0.871, 0.492, 222.424, 107.74)" fill="#fff"/>
    <rect id="Rectangle_155" data-name="Rectangle 155" width="1.467" height="218.093" transform="matrix(0.492, -0.871, 0.871, 0.492, 209.43, 130.723)" fill="#fff"/>
    <rect id="Rectangle_156" data-name="Rectangle 156" width="1.467" height="218.093" transform="matrix(0.492, -0.871, 0.871, 0.492, 196.436, 153.705)" fill="#fff"/>
    <rect id="Rectangle_157" data-name="Rectangle 157" width="1.467" height="218.093" transform="matrix(0.492, -0.871, 0.871, 0.492, 183.443, 176.688)" fill="#fff"/>
    <rect id="Rectangle_158" data-name="Rectangle 158" width="1.467" height="218.093" transform="matrix(0.492, -0.871, 0.871, 0.492, 170.449, 199.672)" fill="#fff"/>
    <rect id="Rectangle_159" data-name="Rectangle 159" width="1.467" height="218.093" transform="matrix(0.492, -0.871, 0.871, 0.492, 157.455, 222.655)" fill="#fff"/>
    <rect id="Rectangle_160" data-name="Rectangle 160" width="1.467" height="218.093" transform="matrix(0.492, -0.871, 0.871, 0.492, 144.461, 245.637)" fill="#fff"/>
    <path id="Path_74" data-name="Path 74" d="M510.216,220.586H223.126v399.2h287.09A3.889,3.889,0,0,0,514.1,615.9V224.474a3.888,3.888,0,0,0-3.888-3.888ZM239.327,608.773a7.129,7.129,0,1,1,7.129-7.129,7.129,7.129,0,0,1-7.129,7.129Zm0-36.291a7.129,7.129,0,1,1,7.129-7.129,7.129,7.129,0,0,1-7.129,7.129Zm0-36.291a7.129,7.129,0,1,1,7.129-7.129,7.129,7.129,0,0,1-7.129,7.129Zm0-36.291a7.129,7.129,0,1,1,7.129-7.129,7.129,7.129,0,0,1-7.129,7.129Zm0-36.291a7.129,7.129,0,1,1,7.129-7.129,7.129,7.129,0,0,1-7.129,7.129Zm0-36.291a7.129,7.129,0,1,1,7.129-7.129,7.129,7.129,0,0,1-7.129,7.129Zm0-36.291a7.129,7.129,0,1,1,7.129-7.129,7.129,7.129,0,0,1-7.129,7.129Zm0-36.291a7.129,7.129,0,1,1,7.129-7.129,7.129,7.129,0,0,1-7.129,7.129Zm0-36.291a7.129,7.129,0,1,1,7.129-7.129,7.129,7.129,0,0,1-7.129,7.129Zm0-36.291a7.129,7.129,0,1,1,7.129-7.129,7.129,7.129,0,0,1-7.129,7.129Zm0-36.291a7.129,7.129,0,1,1,7.129-7.129,7.129,7.129,0,0,1-7.129,7.129Z" transform="translate(-204.332 -220.586)" fill="#5a00cc"/>
    <path id="Path_75" data-name="Path 75" d="M221.676,243.82c-1.924,0-18.794-.091-18.794-3.24s16.87-3.24,18.794-3.24v1.3c-9.936,0-16.379,1.112-17.417,1.944,1.038.832,7.48,1.944,17.417,1.944,9.914,0,16.35-1.108,17.41-1.938-.5-.356-2.563-1.1-8.087-1.58l.112-1.291c9.359.809,9.359,2.3,9.359,2.865C240.469,243.729,223.6,243.82,221.676,243.82Z" transform="translate(-202.882 -221.786)" fill="#2f2e41"/>
    <path id="Path_76" data-name="Path 76" d="M221.676,282.212c-1.924,0-18.794-.091-18.794-3.24s16.87-3.24,18.794-3.24v1.3c-9.936,0-16.379,1.112-17.417,1.944,1.038.832,7.48,1.944,17.417,1.944,9.914,0,16.35-1.108,17.41-1.938-.5-.356-2.563-1.1-8.087-1.58l.112-1.291c9.359.809,9.359,2.3,9.359,2.865C240.469,282.122,223.6,282.212,221.676,282.212Z" transform="translate(-202.882 -224.535)" fill="#2f2e41"/>
    <path id="Path_77" data-name="Path 77" d="M221.676,321.3c-1.924,0-18.794-.091-18.794-3.24s16.87-3.24,18.794-3.24v1.3c-9.936,0-16.379,1.112-17.417,1.944,1.038.832,7.48,1.944,17.417,1.944,9.914,0,16.35-1.108,17.41-1.938-.5-.356-2.563-1.1-8.087-1.58l.112-1.291c9.359.809,9.359,2.3,9.359,2.865C240.469,321.212,223.6,321.3,221.676,321.3Z" transform="translate(-202.882 -227.335)" fill="#2f2e41"/>
    <path id="Path_78" data-name="Path 78" d="M221.676,360.394c-1.924,0-18.794-.091-18.794-3.24s16.87-3.24,18.794-3.24v1.3c-9.936,0-16.379,1.112-17.417,1.944,1.038.832,7.48,1.944,17.417,1.944,9.914,0,16.35-1.108,17.41-1.938-.5-.356-2.563-1.1-8.087-1.58l.112-1.291c9.359.809,9.359,2.3,9.359,2.865C240.469,360.3,223.6,360.394,221.676,360.394Z" transform="translate(-202.882 -230.135)" fill="#2f2e41"/>
    <path id="Path_79" data-name="Path 79" d="M221.676,399.485c-1.924,0-18.794-.091-18.794-3.24s16.87-3.24,18.794-3.24v1.3c-9.936,0-16.379,1.112-17.417,1.944,1.038.832,7.48,1.944,17.417,1.944,9.914,0,16.35-1.108,17.41-1.938-.5-.356-2.563-1.1-8.087-1.58l.112-1.291c9.359.809,9.359,2.3,9.359,2.865C240.469,399.394,223.6,399.485,221.676,399.485Z" transform="translate(-202.882 -232.934)" fill="#2f2e41"/>
    <path id="Path_80" data-name="Path 80" d="M221.676,438.576c-1.924,0-18.794-.091-18.794-3.24s16.87-3.24,18.794-3.24v1.3c-9.936,0-16.379,1.112-17.417,1.944,1.038.832,7.48,1.944,17.417,1.944,9.914,0,16.35-1.108,17.41-1.938-.5-.356-2.563-1.1-8.087-1.58l.112-1.291c9.359.809,9.359,2.3,9.359,2.865C240.469,438.485,223.6,438.576,221.676,438.576Z" transform="translate(-202.882 -235.734)" fill="#2f2e41"/>
    <path id="Path_81" data-name="Path 81" d="M221.676,477.667c-1.924,0-18.794-.091-18.794-3.24s16.87-3.24,18.794-3.24v1.3c-9.936,0-16.379,1.112-17.417,1.944,1.038.832,7.48,1.944,17.417,1.944,9.914,0,16.35-1.108,17.41-1.938-.5-.356-2.563-1.1-8.087-1.58l.112-1.291c9.359.809,9.359,2.3,9.359,2.865C240.469,477.576,223.6,477.667,221.676,477.667Z" transform="translate(-202.882 -238.533)" fill="#2f2e41"/>
    <path id="Path_82" data-name="Path 82" d="M221.676,516.758c-1.924,0-18.794-.091-18.794-3.24s16.87-3.24,18.794-3.24v1.3c-9.936,0-16.379,1.112-17.417,1.944,1.038.832,7.48,1.944,17.417,1.944,9.914,0,16.35-1.107,17.41-1.938-.5-.356-2.563-1.1-8.087-1.58l.112-1.291c9.359.809,9.359,2.3,9.359,2.865C240.469,516.667,223.6,516.758,221.676,516.758Z" transform="translate(-202.882 -241.333)" fill="#2f2e41"/>
    <path id="Path_83" data-name="Path 83" d="M221.676,555.849c-1.924,0-18.794-.091-18.794-3.24s16.87-3.24,18.794-3.24v1.3c-9.936,0-16.379,1.112-17.417,1.944,1.038.832,7.48,1.944,17.417,1.944,9.914,0,16.35-1.108,17.41-1.938-.5-.356-2.563-1.1-8.087-1.58l.112-1.291c9.359.809,9.359,2.3,9.359,2.865C240.469,555.758,223.6,555.849,221.676,555.849Z" transform="translate(-202.882 -244.133)" fill="#2f2e41"/>
    <path id="Path_84" data-name="Path 84" d="M221.676,594.94c-1.924,0-18.794-.091-18.794-3.24s16.87-3.24,18.794-3.24v1.3c-9.936,0-16.379,1.112-17.417,1.944,1.038.832,7.48,1.944,17.417,1.944,9.914,0,16.35-1.108,17.41-1.938-.5-.356-2.563-1.1-8.087-1.58l.112-1.291c9.359.809,9.359,2.3,9.359,2.865C240.469,594.849,223.6,594.94,221.676,594.94Z" transform="translate(-202.882 -246.932)" fill="#2f2e41"/>
    <path id="Path_85" data-name="Path 85" d="M221.676,634.031c-1.924,0-18.794-.091-18.794-3.24s16.87-3.24,18.794-3.24v1.3c-9.936,0-16.379,1.112-17.417,1.944,1.038.832,7.48,1.944,17.417,1.944,9.914,0,16.35-1.108,17.41-1.938-.5-.356-2.563-1.1-8.087-1.58l.112-1.291c9.359.809,9.359,2.3,9.359,2.865C240.469,633.94,223.6,634.031,221.676,634.031Z" transform="translate(-202.882 -249.732)" fill="#2f2e41"/>
    <path id="Path_86" data-name="Path 86" d="M457.865,380.028H315.293a4.217,4.217,0,0,1-4.212-4.212V320.082a4.217,4.217,0,0,1,4.212-4.212H457.865a4.217,4.217,0,0,1,4.212,4.212v55.733A4.217,4.217,0,0,1,457.865,380.028Z" transform="translate(-210.631 -227.41)" fill="#fff"/>
    <path id="Path_87" data-name="Path 87" d="M408.9,335.962H372.608a3.24,3.24,0,0,1,0-6.481H408.9a3.24,3.24,0,1,1,0,6.481Z" transform="translate(-214.806 -228.385)" fill="#6c63ff"/>
    <path id="Path_88" data-name="Path 88" d="M427.44,353.414H350.968a3.24,3.24,0,0,1,0-6.481H427.44a3.24,3.24,0,1,1,0,6.481Z" transform="translate(-213.256 -229.635)" fill="#6c63ff"/>
    <path id="Path_89" data-name="Path 89" d="M427.44,370.865H350.968a3.24,3.24,0,0,1,0-6.481H427.44a3.24,3.24,0,1,1,0,6.481Z" transform="translate(-213.256 -230.884)" fill="#6c63ff"/>
  </g>
</svg>
